<mxfile host="app.diagrams.net" modified="2022-11-15T00:18:57.613Z" agent="5.0 (Windows NT 10.0; Win64; x64) AppleWebKit/537.36 (KHTML, like Gecko) Chrome/107.0.0.0 Safari/537.36" etag="H3ZMYywbgViPLvKmTJkn" version="20.5.1" type="github">
  <diagram id="3P0iwuadj3HA_zfT8Zw6" name="페이지-1">
    <mxGraphModel dx="728" dy="748" grid="1" gridSize="10" guides="1" tooltips="1" connect="1" arrows="1" fold="1" page="1" pageScale="1" pageWidth="827" pageHeight="1169" math="0" shadow="0">
      <root>
        <mxCell id="0" />
        <mxCell id="1" parent="0" />
        <mxCell id="AGLY9Qbbb213Nwy2fThC-1" value=" User" style="swimlane;" vertex="1" parent="1">
          <mxGeometry x="210" y="300" width="140" height="200" as="geometry" />
        </mxCell>
        <mxCell id="AGLY9Qbbb213Nwy2fThC-2" value=" User Favorite" style="swimlane;" vertex="1" parent="1">
          <mxGeometry x="480" y="360" width="140" height="200" as="geometry" />
        </mxCell>
      </root>
    </mxGraphModel>
  </diagram>
</mxfile>
